<?xml version="1.0" standalone="no"?><!DOCTYPE svg PUBLIC "-//W3C//DTD SVG 1.1//EN" "http://www.w3.org/Graphics/SVG/1.1/DTD/svg11.dtd"><svg t="1721201353536" class="icon" viewBox="0 0 1024 1024" version="1.1" xmlns="http://www.w3.org/2000/svg" p-id="1453" xmlns:xlink="http://www.w3.org/1999/xlink" width="200" height="200"><path d="M512 896a384 384 0 1 0 0-768 384 384 0 0 0 0 768z m0 85.333333C252.8 981.333333 42.666667 771.2 42.666667 512S252.8 42.666667 512 42.666667s469.333333 210.133333 469.333333 469.333333-210.133333 469.333333-469.333333 469.333333z m-21.333333-298.666666h42.666666a21.333333 21.333333 0 0 1 21.333334 21.333333v42.666667a21.333333 21.333333 0 0 1-21.333334 21.333333h-42.666666a21.333333 21.333333 0 0 1-21.333334-21.333333v-42.666667a21.333333 21.333333 0 0 1 21.333334-21.333333zM343.466667 396.032c0.554667-4.778667 1.109333-8.746667 1.664-11.946667 8.32-46.293333 29.397333-80.341333 63.189333-102.144 26.453333-17.28 59.008-25.941333 97.621333-25.941333 50.730667 0 92.842667 12.288 126.378667 36.864 33.578667 24.533333 50.346667 60.928 50.346667 109.141333 0 29.568-7.253333 54.485333-21.888 74.752-8.533333 12.245333-24.917333 27.946667-49.152 47.061334l-23.893334 18.773333c-13.013333 10.24-21.632 22.186667-25.898666 35.84-1.152 3.712-2.176 10.624-3.072 20.736a21.333333 21.333333 0 0 1-21.248 19.498667h-47.786667a21.333333 21.333333 0 0 1-21.248-23.296c2.773333-29.696 5.717333-48.469333 8.832-56.362667 5.845333-14.677333 20.906667-31.573333 45.141333-50.688l24.533334-19.413333c8.106667-6.144 49.749333-35.456 49.749333-61.44 0-25.941333-4.522667-35.498667-17.578667-49.749334-13.013333-14.208-42.368-18.773333-68.821333-18.773333-26.026667 0-48.298667 6.869333-59.178667 24.405333-5.034667 8.106667-9.173333 16.768-12.117333 25.6a89.472 89.472 0 0 0-3.114667 13.098667 21.333333 21.333333 0 0 1-21.034666 17.706667H364.672a21.333333 21.333333 0 0 1-21.205333-23.722667z" fill="#707070" p-id="1454"></path></svg>